<?xml version="1.0"?>
<svg version="1.1" xmlns="http://www.w3.org/2000/svg" width="400" height="50" style=""><path fill="#f08e32" d="M18.75,38.8l0-16.2l-2.55-0.6l0-1.65l5.55-0.15l3.45,0c3.75,0,6.45,1.65,6.45,5.25c0,2.7-1.38,4.23-3.9,4.86c3.15,0.72,4.65,2.49,4.65,4.89c0,4.2-2.7,6-7.65,6l-8.55,0l0-1.8z M21.75,29.2l2.25,0c2.7,0,4.5-1.05,4.5-3.45c0-2.1-1.5-3.15-3.45-3.15l-3.3,0l0,6.6z M21.75,38.8l3.15,0c2.85,0,4.35-1.2,4.35-3.45c0-3-1.95-3.9-5.25-3.9l-2.25,0l0,7.35z M42.258,18.1l0,9.06c0.93-0.78,3.03-2.16,5.25-2.16c3.3,0,4.8,2.1,4.8,5.4l0,8.4l2.25,0.75l0,1.65l-7.2,0l0-1.65l1.95-0.72l0-8.13c0-2.1-0.66-3.15-2.61-3.15c-2.55,0-4.44,2.4-4.44,2.4l0,8.85l1.95,0.75l0,1.65l-7.5,0l0-1.65l2.55-0.75l0-18.3l-2.55-0.6l0-1.65z M59.916,29.95l-0.15-3.75s3.3-1.2,5.85-1.2c3.48,0,5.55,1.2,5.55,4.65l0,9.15l2.4,0.6l0,1.65l-4.65,0.15l-0.63-2.1c-1.02,1.02-2.82,2.4-4.92,2.4c-2.85,0-4.5-1.65-4.5-4.5c0-3.45,2.7-4.65,6.9-4.65l2.4,0l0-2.4c0-1.8-1.05-2.7-2.85-2.7s-3.03,0.45-3.03,0.45l-0.42,2.25l-1.95,0z M68.166,34.3l-2.1,0c-3,0-4.14,0.75-4.14,2.55c0,1.35,0.84,2.25,2.19,2.25c2.25,0,4.05-2.4,4.05-2.4l0-2.4z M82.674,25.3l0.27,2.19c0.75-0.84,2.49-2.49,4.53-2.49c1.5,0,2.7,0.45,2.7,0.45l-0.15,4.35l-1.95,0l-0.45-2.25c-2.25,0-3.69,1.47-4.35,2.34l0,8.91l3,0.75l0,1.65l-8.55,0l0-1.65l2.55-0.75l0-11.1l-2.55-0.6l0-1.65z M94.932,29.95l-0.15-3.75s3.3-1.2,5.85-1.2c3.48,0,5.55,1.2,5.55,4.65l0,9.15l2.4,0.6l0,1.65l-4.65,0.15l-0.63-2.1c-1.02,1.02-2.82,2.4-4.92,2.4c-2.85,0-4.5-1.65-4.5-4.5c0-3.45,2.7-4.65,6.9-4.65l2.4,0l0-2.4c0-1.8-1.05-2.7-2.85-2.7s-3.03,0.45-3.03,0.45l-0.42,2.25l-1.95,0z M103.182,34.3l-2.1,0c-3,0-4.14,0.75-4.14,2.55c0,1.35,0.84,2.25,2.19,2.25c2.25,0,4.05-2.4,4.05-2.4l0-2.4z M122.49,25.45l0,2.25l-4.35,0l0,9.63c0,1.38,0.66,1.83,1.5,1.83c0.72,0,1.56-0.33,2.34-0.75l0.81,1.59c-1.35,0.99-2.7,1.5-4.2,1.5c-1.8,0-3.45-0.99-3.45-4.35l0-9.45l-3,0l0-1.95l3-0.3l0-3.78l3-0.6l0,4.38l4.35,0z M131.748,18.1l0,9.06c0.93-0.78,3.03-2.16,5.25-2.16c3.3,0,4.8,2.1,4.8,5.4l0,8.4l2.25,0.75l0,1.65l-7.2,0l0-1.65l1.95-0.72l0-8.13c0-2.1-0.66-3.15-2.61-3.15c-2.55,0-4.44,2.4-4.44,2.4l0,8.85l1.95,0.75l0,1.65l-7.5,0l0-1.65l2.55-0.75l0-18.3l-2.55-0.6l0-1.65z"/><path fill="#f08e32" d="M174.296,40.45l0,2.55l-9.54,0l0-2.55l2.25-0.81l-0.72-2.19l-6.66,0l-0.75,2.16l2.34,0.84l0,2.55l-9.06,0l0-2.55l2.19-0.84l6.6-17.67l4.8-0.09l6.45,17.76z M165.296,34.24l-2.25-7.11l-2.37,7.11l4.62,0z M183.8813,26.8l0.27,2.07s2.16-2.37,4.17-2.37c1.65,0,2.79,0.54,2.79,0.54l-0.24,5.76l-2.7,0l-0.45-2.55c-1.74,0-3.24,1.68-3.24,1.68l0,7.92l3,0.75l0,2.4l-9.9,0l0-2.4l2.4-0.75l0-9.75l-2.4-0.75l0-2.4z M205.0466,39.16l1.08,2.28c-1.47,1.08-3.15,1.86-5.1,1.86c-3.45,0-4.44-2.4-4.44-5.85l0-6.9l-2.79,0l0-2.91l2.79-0.39l0-4.14l4.5-0.81l0,4.95l4.2,0l0,3.3l-4.2,0l0,6.6c0,1.92,0.33,2.7,1.59,2.7c0.81,0,1.98-0.48,2.37-0.69z M212.3519,37.75l0.24,1.95s1.05,0.3,2.52,0.3c1.65,0,2.46-0.51,2.46-1.47c0-2.46-8.01-1.56-8.01-6.9c0-3.75,3-5.13,6.18-5.13c2.7,0,5.58,0.9,5.58,0.9l-0.12,4.5l-2.55,0l-0.45-1.8s-0.87-0.3-2.07-0.3c-1.29,0-2.07,0.54-2.07,1.53c0,2.43,8.01,1.38,8.01,6.57c0,3.45-2.79,5.4-6.9,5.4c-2.85,0-5.52-0.66-5.52-0.66l0-4.89l2.7,0z"/></svg>
